<?xml version="1.0" encoding="UTF-8" standalone="no"?>
<!-- Created with Inkscape (http://www.inkscape.org/) -->

<svg
   width="478.59903"
   height="188.2903"
   viewBox="0 0 478.59903 188.2903"
   version="1.1"
   id="svg1"
   xml:space="preserve"
   inkscape:version="1.3.2 (091e20ef0f, 2023-11-25)"
   sodipodi:docname="logo_toybox_bazzite.svg"
   inkscape:export-filename="fedora-gdm-logo.png"
   inkscape:export-xdpi="72"
   inkscape:export-ydpi="72"
   xmlns:inkscape="http://www.inkscape.org/namespaces/inkscape"
   xmlns:sodipodi="http://sodipodi.sourceforge.net/DTD/sodipodi-0.dtd"
   xmlns="http://www.w3.org/2000/svg"
   xmlns:svg="http://www.w3.org/2000/svg"><sodipodi:namedview
     id="namedview1"
     pagecolor="#505050"
     bordercolor="#ffffff"
     borderopacity="1"
     inkscape:showpageshadow="0"
     inkscape:pageopacity="0"
     inkscape:pagecheckerboard="1"
     inkscape:deskcolor="#505050"
     inkscape:document-units="px"
     inkscape:zoom="2"
     inkscape:cx="102.75"
     inkscape:cy="84.25"
     inkscape:window-width="2668"
     inkscape:window-height="1502"
     inkscape:window-x="26"
     inkscape:window-y="23"
     inkscape:window-maximized="0"
     inkscape:current-layer="layer2" /><defs
     id="defs1"><inkscape:path-effect
       effect="fillet_chamfer"
       id="path-effect23"
       is_visible="true"
       lpeversion="1"
       nodesatellites_param="F,0,0,1,0,0,0,1 @ F,0,0,1,0,0,0,1 @ F,0,0,1,0,0,0,1 @ F,0,0,1,0,0,0,1 @ F,0,0,1,0,0,0,1 @ F,0,0,1,0,0,0,1 @ F,0,0,1,0,0,0,1 @ F,0,0,1,0,0,0,1 @ F,0,0,1,0,0,0,1 @ F,0,0,1,0,0,0,1 @ F,0,0,1,0,0,0,1 @ F,0,0,1,0,0,0,1 @ F,0,0,1,0,0,0,1 @ F,0,0,1,0,0,0,1 @ F,0,0,1,0,0,0,1 @ F,0,0,1,0,0,0,1 @ F,0,0,1,0,0,0,1 @ F,0,0,1,0,0,0,1 @ F,0,0,1,0,0,0,1 @ F,0,0,1,0,0,0,1 @ F,0,0,1,0,0,0,1 @ F,0,0,1,0,0,0,1 @ F,0,0,1,0,0,0,1 @ F,0,0,1,0,0,0,1 @ F,0,0,1,0,0,0,1 @ F,0,0,1,0,0,0,1 @ F,0,0,1,0,0,0,1 @ F,0,0,1,0,0,0,1 @ F,0,0,1,0,0,0,1 @ F,0,0,1,0,0,0,1 @ F,0,0,1,0,0,0,1 @ F,0,0,1,0,0,0,1 @ F,0,0,1,0,0,0,1 @ F,0,0,1,0,0,0,1 @ F,0,0,1,0,0,0,1 @ F,0,0,1,0,0,0,1 @ F,0,0,1,0,0,0,1 @ F,0,0,1,0,0,0,1 @ F,0,0,1,0,0,0,1 @ F,0,0,1,0,0,0,1 @ F,0,0,1,0,0,0,1 @ F,0,0,1,0,0,0,1 @ F,0,0,1,0,0,0,1 @ F,0,0,1,0,0,0,1 @ F,0,0,1,0,0,0,1 @ F,0,0,1,0,0,0,1 @ F,0,0,1,0,0,0,1 @ F,0,0,1,0,0,0,1 @ F,0,0,1,0,0,0,1 @ F,0,0,1,0,0,0,1 @ F,0,0,1,0,0,0,1 @ F,0,0,1,0,0,0,1 @ F,0,0,1,0,0,0,1 @ F,0,0,1,0,0,0,1 @ F,0,0,1,0,0,0,1 @ F,0,0,1,0,0,0,1 @ F,0,0,1,0,0,0,1 @ F,0,0,1,0,0,0,1 @ F,0,0,1,0,0,0,1 @ F,0,0,1,0,0,0,1 @ F,0,0,1,0,0,0,1 @ F,0,0,1,0,0,0,1 @ F,0,0,1,0,0,0,1 @ F,0,0,1,0,0,0,1 @ F,0,0,1,0,0,0,1 @ F,0,0,1,0,0,0,1 @ F,0,0,1,0,0,0,1 @ F,0,0,1,0,0,0,1 @ F,0,0,1,0,0,0,1 @ F,0,0,1,0,0,0,1 @ F,0,0,1,0,0,0,1 @ F,0,0,1,0,0,0,1 @ F,0,0,1,0,0,0,1 @ F,0,0,1,0,0,0,1"
       radius="0"
       unit="px"
       method="auto"
       mode="F"
       chamfer_steps="1"
       flexible="false"
       use_knot_distance="true"
       apply_no_radius="true"
       apply_with_radius="true"
       only_selected="false"
       hide_knots="false" /><inkscape:perspective
       sodipodi:type="inkscape:persp3d"
       inkscape:vp_x="0 : -67.709702 : 1"
       inkscape:vp_y="0 : 1000 : 0"
       inkscape:vp_z="512 : -67.709702 : 1"
       inkscape:persp3d-origin="256 : -153.04303 : 1"
       id="perspective4" /></defs><g
     inkscape:groupmode="layer"
     id="layer2"
     inkscape:label="Remake"
     transform="translate(-17.840467,-155.97554)"><text
       xml:space="preserve"
       style="font-size:110.667px;fill:#ffffff;stroke-width:64;stroke-linecap:round"
       x="13.749992"
       y="268.19766"
       id="text1"
       inkscape:label="BAZZITE"><tspan
         sodipodi:role="line"
         id="tspan1"
         x="13.749992"
         y="268.19766"
         style="font-style:normal;font-variant:normal;font-weight:800;font-stretch:normal;font-size:110.667px;font-family:'Anaphora Stencil';-inkscape-font-specification:'Anaphora Stencil Ultra-Bold'">BAZZITE</tspan></text><text
       xml:space="preserve"
       style="font-style:normal;font-variant:normal;font-weight:normal;font-stretch:normal;font-size:26.6667px;font-family:'STREET MARKER';-inkscape-font-specification:'STREET MARKER';text-align:center;text-anchor:middle;fill:#ffffff;fill-opacity:1;stroke:none;stroke-width:2;stroke-linecap:square;stroke-linejoin:miter;stroke-dasharray:none;stroke-opacity:1"
       x="453.65277"
       y="324.15775"
       id="text11"
       inkscape:label="Edition"><tspan
         sodipodi:role="line"
         id="tspan11"
         x="453.65277"
         y="324.15775"
         style="font-style:normal;font-variant:normal;font-weight:normal;font-stretch:normal;font-size:26.6667px;font-family:'Anaphora Trial';-inkscape-font-specification:'Anaphora Trial';fill:#ffffff;fill-opacity:1">Edition</tspan></text><text
       xml:space="preserve"
       style="font-style:normal;font-variant:normal;font-weight:bold;font-stretch:normal;font-size:64px;font-family:'Anaphora Trial';-inkscape-font-specification:'Anaphora Trial Bold';text-align:center;text-anchor:middle;fill:#be0a0a;fill-opacity:1;stroke:#ffffff;stroke-width:2;stroke-linecap:square;stroke-linejoin:miter;stroke-dasharray:none;stroke-opacity:1"
       x="282.68729"
       y="350.78735"
       id="text10"
       transform="rotate(-6)"
       inkscape:label="TOY BOX"><tspan
         sodipodi:role="line"
         id="tspan10"
         x="282.68729"
         y="350.78735"
         style="font-style:normal;font-variant:normal;font-weight:normal;font-stretch:normal;font-size:64px;font-family:'STREET MARKER';-inkscape-font-specification:'STREET MARKER';fill:#be0a0a;fill-opacity:1;stroke:none;stroke-opacity:1">TOY BOX</tspan></text><text
       xml:space="preserve"
       style="font-size:21.3333px;fill:#ffffff;stroke-width:64;stroke-linecap:round"
       x="145.64284"
       y="175.79518"
       id="text9"
       inkscape:label="Universal Blue"><tspan
         sodipodi:role="line"
         id="tspan9"
         x="145.64284"
         y="175.79518"
         style="font-style:normal;font-variant:normal;font-weight:bold;font-stretch:normal;font-size:21.3333px;font-family:'Anaphora Trial';-inkscape-font-specification:'Anaphora Trial Bold'">ΠΑΓΚΟΣΜΙΟΣ ΜΠΛΕ</tspan></text><path
       style="fill:none;fill-opacity:1;stroke:#ffffff;stroke-width:2;stroke-linecap:square;stroke-linejoin:miter;stroke-dasharray:none;stroke-opacity:1"
       d="M 490.96566,174.8033 H 370.14683 V 156.97554 H 141.28638 V 174.7819 H 18.840467"
       id="path9"
       sodipodi:nodetypes="cccccc"
       inkscape:label="Top Lines" /><g
       inkscape:groupmode="layer"
       id="layer3"
       inkscape:label="Paint Drips"><path
         style="fill:#be0a0a;fill-opacity:1;stroke:none;stroke-width:2;stroke-linecap:square;stroke-linejoin:miter;stroke-dasharray:none;stroke-opacity:1"
         id="path11"
         d="m 473.48412,310.74814 c -0.0979,0.16125 -0.16632,0.33743 -0.19672,0.52385 -0.0152,0.0931 -0.0379,0.0897 0.004,0.0882 0.0357,0.0278 -0.0335,0.0967 -0.0463,0.12322 -0.0279,0.0579 -0.0402,0.12537 -0.0552,0.18668 -0.0322,0.12546 -0.0579,0.25378 -0.0757,0.38223 -0.004,0.021 -0.007,0.0424 -0.0132,0.0629 -0.0379,0.12921 -0.002,-0.0667 -0.0433,0.14149 -0.0197,0.10058 -0.0208,0.20312 -0.0213,0.3051 -0.0364,0.16438 -0.0397,0.33309 -0.0337,0.5006 0.0206,0.14999 0.006,0.29932 0.002,0.44953 -0.0164,0.1949 0.008,0.38688 0.0511,0.57665 0.0179,0.14291 0.015,0.28835 0.0139,0.43228 0.009,0.19741 0.0396,0.39277 0.0508,0.58994 0.009,0.14235 0.0394,0.28607 0.029,0.42936 -0.002,0.0337 -0.008,0.0672 -0.0118,0.10076 -0.003,0.21163 0.0479,0.41771 0.0466,0.62886 0.002,0.0443 0.003,0.0887 0.006,0.13295 0.0352,0.43934 -0.006,-0.17189 0.0219,0.19792 0.002,0.0265 0.003,0.0531 0.004,0.0797 6e-5,0.0271 -0.002,0.0542 1.8e-4,0.0813 0.003,0.0422 0.008,0.0842 0.0127,0.12623 0.0291,0.15942 0.0353,0.32132 0.0608,0.48125 0.003,0.0995 0.0496,0.19216 0.0565,0.28968 0.004,0.13118 0.0425,0.24983 0.0675,0.37317 0.0369,0.0866 10e-4,0.0539 0.0614,0.2163 -0.007,10e-4 -0.0183,-0.0803 -0.021,-0.0744 -0.0128,0.0279 -0.0117,0.0602 -0.0163,0.0905 -0.0166,0.1337 -0.0101,0.2694 0.002,0.40327 -0.002,0.0235 0.009,0.0465 0.008,0.07 -5e-4,0.0139 -0.005,0.0275 -0.006,0.0413 -0.005,0.0491 -0.003,0.0982 -9.8e-4,0.14735 2.8e-4,0.0928 -0.002,0.18568 0.002,0.27846 0.005,0.0658 0.006,0.13163 0.005,0.19754 -0.002,0.0681 -8.4e-4,0.13629 -7.6e-4,0.20444 -9e-5,0.0341 -2.7e-4,0.0681 -4.3e-4,0.10216 -1.3604,1.63011 2.07595,2.40136 1.06313,0.0259 l -0.0304,-0.0713 c -0.0133,-0.0313 -0.002,-0.0225 -0.002,-0.0569 5e-5,-0.0679 0.002,-0.13574 -7.3e-4,-0.2036 -9.3e-4,-0.0667 6.2e-4,-0.13331 0.005,-0.19988 0.003,-0.0905 9.7e-4,-0.18106 0.002,-0.27161 0.005,-0.0945 -0.009,-0.18714 -4.1e-4,-0.28102 0.007,-0.11233 0.0123,-0.22531 0.007,-0.33775 -0.009,-0.14284 3.6e-4,-0.28927 -0.057,-0.42425 0.009,0.0318 0.0109,0.12937 0.0175,0.0971 0.0117,-0.0565 -0.0314,-0.18106 -0.0486,-0.2303 0.0273,0.2118 0.004,-0.0764 -0.007,-0.11126 -8.4e-4,-0.10536 0.003,-0.0894 -0.0134,-0.19804 -0.006,-0.0422 -0.0132,-0.0844 -0.0234,-0.12573 -0.002,-0.008 -0.007,-0.0154 -0.008,-0.0237 -0.004,-0.024 -0.006,-0.0484 -0.009,-0.0726 -0.0192,-0.14182 -0.008,-0.28614 -0.0277,-0.42838 -0.0135,-0.17454 -0.02,-0.34978 -0.044,-0.52341 -5e-5,-0.21148 2.3e-4,-0.42355 -0.0233,-0.634 -0.0156,-0.16974 -0.0255,-0.34059 -0.0513,-0.50878 0.0148,-0.21745 0.0107,-0.43531 -0.0218,-0.65122 -0.009,-0.11687 -0.008,-0.13666 -0.0261,-0.24977 -0.007,-0.0464 -0.0231,-0.0913 -0.0295,-0.13779 -0.008,-0.0603 -0.005,-0.12184 -0.0182,-0.18155 -0.005,-0.0349 -0.0155,-0.0772 -0.0144,-0.11361 0.003,-0.0942 0.0117,-0.18854 0.004,-0.28292 -0.004,-0.15055 -0.0237,-0.30049 -0.0144,-0.4513 0.008,-0.16678 0.0187,-0.33345 0.0231,-0.50033 -0.002,-0.0915 0.0219,-0.1834 0.0378,-0.27291 0.0395,-0.1437 0.0887,-0.28497 0.10659,-0.43366 10e-4,-0.0471 0.007,-0.0935 0.0105,-0.14049 3.9e-4,-0.006 0.003,-0.0217 9.2e-4,-0.0166 -0.006,0.0134 -0.017,0.0282 -0.0131,0.0425 0.002,0.009 0.0127,-0.0135 0.0191,-0.0203 0.0132,-0.0222 0.0253,-0.0451 0.0397,-0.0667 0.009,-0.0139 0.0225,-0.025 0.0309,-0.0394 0.0888,-0.15069 0.14901,-0.31961 0.17627,-0.492 0.79176,-2.16859 -0.23053,-2.54182 -1.02229,-0.37323 z"
         sodipodi:nodetypes="cscsccccccccccccccscccccccsccsccccccsscccccccccccsccccccccccccccccscccccccc"
         inkscape:path-effect="#path-effect23"
         inkscape:original-d="m 473.48412,310.74814 c -0.0979,0.16125 -0.16632,0.33743 -0.19672,0.52385 -0.0152,0.0931 -0.0379,0.0897 0.004,0.0882 0.0357,0.0278 -0.0335,0.0967 -0.0463,0.12322 -0.0279,0.0579 -0.0402,0.12537 -0.0552,0.18668 -0.0322,0.12546 -0.0579,0.25378 -0.0757,0.38223 -0.004,0.021 -0.007,0.0424 -0.0132,0.0629 -0.0379,0.12921 -0.002,-0.0667 -0.0433,0.14149 -0.0197,0.10058 -0.0208,0.20312 -0.0213,0.3051 -0.0364,0.16438 -0.0397,0.33309 -0.0337,0.5006 0.0206,0.14999 0.006,0.29932 0.002,0.44953 -0.0164,0.1949 0.008,0.38688 0.0511,0.57665 0.0179,0.14291 0.015,0.28835 0.0139,0.43228 0.009,0.19741 0.0396,0.39277 0.0508,0.58994 0.009,0.14235 0.0394,0.28607 0.029,0.42936 -0.002,0.0337 -0.008,0.0672 -0.0118,0.10076 -0.003,0.21163 0.0479,0.41771 0.0466,0.62886 0.002,0.0443 0.003,0.0887 0.006,0.13295 0.0352,0.43934 -0.006,-0.17189 0.0219,0.19792 0.002,0.0265 0.003,0.0531 0.004,0.0797 6e-5,0.0271 -0.002,0.0542 1.8e-4,0.0813 0.003,0.0422 0.008,0.0842 0.0127,0.12623 0.0291,0.15942 0.0353,0.32132 0.0608,0.48125 0.003,0.0995 0.0496,0.19216 0.0565,0.28968 0.004,0.13118 0.0425,0.24983 0.0675,0.37317 0.0369,0.0866 10e-4,0.0539 0.0614,0.2163 -0.007,10e-4 -0.0183,-0.0803 -0.021,-0.0744 -0.0128,0.0279 -0.0117,0.0602 -0.0163,0.0905 -0.0166,0.1337 -0.0101,0.2694 0.002,0.40327 -0.002,0.0235 0.009,0.0465 0.008,0.07 -5e-4,0.0139 -0.005,0.0275 -0.006,0.0413 -0.005,0.0491 -0.003,0.0982 -9.8e-4,0.14735 2.8e-4,0.0928 -0.002,0.18568 0.002,0.27846 0.005,0.0658 0.006,0.13163 0.005,0.19754 -0.002,0.0681 -8.4e-4,0.13629 -7.6e-4,0.20444 -9e-5,0.0341 -2.7e-4,0.0681 -4.3e-4,0.10216 -1.3604,1.63011 2.07595,2.40136 1.06313,0.0259 l -0.0304,-0.0713 c -0.0133,-0.0313 -0.002,-0.0225 -0.002,-0.0569 5e-5,-0.0679 0.002,-0.13574 -7.3e-4,-0.2036 -9.3e-4,-0.0667 6.2e-4,-0.13331 0.005,-0.19988 0.003,-0.0905 9.7e-4,-0.18106 0.002,-0.27161 0.005,-0.0945 -0.009,-0.18714 -4.1e-4,-0.28102 0.007,-0.11233 0.0123,-0.22531 0.007,-0.33775 -0.009,-0.14284 3.6e-4,-0.28927 -0.057,-0.42425 0.009,0.0318 0.0109,0.12937 0.0175,0.0971 0.0117,-0.0565 -0.0314,-0.18106 -0.0486,-0.2303 0.0273,0.2118 0.004,-0.0764 -0.007,-0.11126 -8.4e-4,-0.10536 0.003,-0.0894 -0.0134,-0.19804 -0.006,-0.0422 -0.0132,-0.0844 -0.0234,-0.12573 -0.002,-0.008 -0.007,-0.0154 -0.008,-0.0237 -0.004,-0.024 -0.006,-0.0484 -0.009,-0.0726 -0.0192,-0.14182 -0.008,-0.28614 -0.0277,-0.42838 -0.0135,-0.17454 -0.02,-0.34978 -0.044,-0.52341 -5e-5,-0.21148 2.3e-4,-0.42355 -0.0233,-0.634 -0.0156,-0.16974 -0.0255,-0.34059 -0.0513,-0.50878 0.0148,-0.21745 0.0107,-0.43531 -0.0218,-0.65122 -0.009,-0.11687 -0.008,-0.13666 -0.0261,-0.24977 -0.007,-0.0464 -0.0231,-0.0913 -0.0295,-0.13779 -0.008,-0.0603 -0.005,-0.12184 -0.0182,-0.18155 -0.005,-0.0349 -0.0155,-0.0772 -0.0144,-0.11361 0.003,-0.0942 0.0117,-0.18854 0.004,-0.28292 -0.004,-0.15055 -0.0237,-0.30049 -0.0144,-0.4513 0.008,-0.16678 0.0187,-0.33345 0.0231,-0.50033 -0.002,-0.0915 0.0219,-0.1834 0.0378,-0.27291 0.0395,-0.1437 0.0887,-0.28497 0.10659,-0.43366 10e-4,-0.0471 0.007,-0.0935 0.0105,-0.14049 3.9e-4,-0.006 0.003,-0.0217 9.2e-4,-0.0166 -0.006,0.0134 -0.017,0.0282 -0.0131,0.0425 0.002,0.009 0.0127,-0.0135 0.0191,-0.0203 0.0132,-0.0222 0.0253,-0.0451 0.0397,-0.0667 0.009,-0.0139 0.0225,-0.025 0.0309,-0.0394 0.0888,-0.15069 0.14901,-0.31961 0.17627,-0.492 0.79176,-2.16859 -0.23053,-2.54182 -1.02229,-0.37323 z" /><path
         style="fill:#be0a0a;fill-opacity:1;stroke:none;stroke-width:2;stroke-linecap:square;stroke-linejoin:miter;stroke-dasharray:none;stroke-opacity:1"
         id="path12"
         d="m 336.60466,324.77197 c 0.0476,0.68353 0.0888,1.36673 0.0529,2.0519 -0.0234,0.16243 -0.0882,0.31545 -0.12523,0.47488 -0.0397,0.17093 -0.0395,0.22295 -0.0592,0.40347 0.0174,0.30208 -0.0456,0.59311 -0.12655,0.88172 -0.0988,0.32538 -0.14684,0.65935 -0.18882,0.99577 -0.009,0.2105 -0.0566,0.41564 -0.10937,0.61854 -0.0404,0.22814 -0.0643,0.45952 -0.12064,0.6847 -0.0457,0.28798 -0.10513,0.57211 -0.17067,0.85608 -0.0297,0.26164 -0.11199,0.51077 -0.16072,0.76825 -0.0628,0.2515 -0.10076,0.50875 -0.16149,0.76055 -0.0525,0.24911 -0.0757,0.50415 -0.13464,0.75195 -0.0709,0.27118 -0.0602,0.54816 -0.0462,0.82484 -0.0624,0.28108 -0.0852,0.56807 -0.0909,0.85526 0.002,0.34331 0.02,0.68613 0.0269,1.02943 0.0123,0.17559 -0.0104,0.35294 -4.1e-4,0.52838 0.009,0.15736 0.0222,0.21178 0.0477,0.36013 0.0459,0.15031 0.0561,0.29847 0.0428,0.45274 -0.0342,0.26928 0.0397,0.53533 0.0724,0.80116 0.0156,0.10035 -0.003,0.19998 -0.0108,0.30008 -0.008,0.1191 0.007,0.23769 0.006,0.35674 -0.002,0.0768 -8.4e-4,0.037 -0.003,0.11948 -0.0116,2.18726 1.01947,2.19273 1.03108,0.005 v 0 c -0.001,-0.0933 -4.7e-4,-0.0472 -0.003,-0.13807 -0.003,-0.0983 -0.005,-0.19667 -0.008,-0.295 -0.003,-0.14318 0.06,-0.28528 0.0372,-0.43049 -0.009,-0.14016 -0.0237,-0.27717 -0.051,-0.4151 -0.007,-0.0355 -0.0134,-0.0713 -0.0239,-0.10601 -0.003,-0.01 -0.0148,-0.0155 -0.0159,-0.0255 -0.003,-0.029 0.002,-0.0582 0.003,-0.0873 0.0221,-0.23983 0.0247,-0.47982 -0.0293,-0.71632 -0.0117,-0.0573 -0.0324,-0.11338 -0.0362,-0.17177 -0.0119,-0.17981 0.0177,-0.36184 0.0115,-0.54176 0.004,-0.33843 -0.007,-0.67674 -0.0192,-1.01493 5e-5,-0.0619 -8.8e-4,-0.2222 0.003,-0.28646 0.0135,-0.21505 0.0702,-0.42634 0.0623,-0.64314 -0.0156,-0.19171 -0.0241,-0.38142 0.0354,-0.56784 0.0439,-0.24221 0.0854,-0.48457 0.12633,-0.72707 0.0605,-0.27066 0.13027,-0.53894 0.1715,-0.81358 0.0332,-0.23881 0.13646,-0.46413 0.15871,-0.706 0.073,-0.2952 0.1354,-0.59168 0.17355,-0.8936 0.0357,-0.21253 0.06,-0.42732 0.0996,-0.63863 0.0578,-0.23735 0.11415,-0.47673 0.14068,-0.71983 0.0464,-0.29524 0.0965,-0.58934 0.18426,-0.8758 0.0884,-0.34753 0.15289,-0.7019 0.15392,-1.06177 0.003,-0.14177 0.009,-0.29121 0.063,-0.42489 0.021,-0.0518 0.0478,-0.10106 0.0679,-0.15316 0.03,-0.0777 0.0549,-0.15728 0.0824,-0.23593 0.0531,-0.2597 0.0831,-0.36937 0.10261,-0.64947 0.04,-0.57556 -0.0387,-1.15331 -0.17899,-1.71098 -0.35817,-2.29827 -1.44158,-2.12943 -1.08342,0.16884 z" /><path
         style="fill:#be0a0a;fill-opacity:1;stroke:none;stroke-width:2;stroke-linecap:square;stroke-linejoin:miter;stroke-dasharray:none;stroke-opacity:1"
         id="path13"
         d="m 281.38771,330.79993 c -0.1238,0.3319 -0.19652,0.68129 -0.24977,1.03086 -0.0883,0.57988 0.0353,-0.13755 -0.0401,0.29142 -0.0111,0.18464 -0.0657,0.35962 -0.0863,0.5428 0.0115,0.0987 -0.0209,0.14581 -0.0394,0.23759 -0.0325,0.16158 -0.006,0.0868 -0.0396,0.17198 -0.0458,0.12225 -0.0481,0.25241 -0.0667,0.37949 -0.012,0.082 -0.0362,0.16422 -0.0497,0.24648 -0.027,0.18075 -0.002,0.36233 10e-4,0.54366 -0.004,-0.004 -0.008,-0.0177 -0.0105,-0.0128 -0.0706,0.12989 -0.0844,0.44985 -0.0837,0.59747 0.014,0.21358 0.0237,0.42685 0.0214,0.64101 -0.0103,0.23867 -0.0154,0.47693 0.002,0.71535 0.0217,0.0922 -0.003,0.18818 0.003,0.28021 0.004,0.0609 0.0147,0.12117 0.022,0.18176 0.0541,0.24869 0.0517,0.50288 0.0441,0.7557 -0.0215,0.28915 0.0471,0.57359 0.0802,0.85933 0.004,0.17273 -0.008,0.34549 -0.016,0.51806 -0.005,0.15416 0.01,0.30787 0.0126,0.46188 -0.0108,0.23286 -0.022,0.4656 -0.025,0.69886 0.002,0.1732 0.0101,0.34592 0.0241,0.51852 0.004,2.17931 1.03125,2.17746 1.02734,-0.002 v 0 c 0.0132,-0.1716 0.0206,-0.3433 0.0231,-0.51542 -0.002,-0.23733 -0.0126,-0.47423 -0.0211,-0.71129 -8.7e-4,-0.141 -9.8e-4,-0.28199 -2.3e-4,-0.42299 6.5e-4,-0.20719 0.0406,-0.41347 0.0267,-0.62123 -0.0131,-0.2513 -0.083,-0.49727 -0.0618,-0.7488 0.0132,-0.32723 0.0118,-0.65892 -0.0874,-0.9747 -0.0395,-10e-4 -0.0169,-0.23625 -0.0154,-0.27771 0.0186,-0.23877 0.0212,-0.47788 0.0175,-0.71733 -0.003,-0.21025 -0.0137,-0.41934 -0.0331,-0.62873 0.01,-0.21934 0.0808,-0.42666 0.091,-0.64637 -0.008,-0.10338 -0.0357,-0.20904 -0.0168,-0.31206 0.0431,-0.18769 0.0729,-0.37701 0.10643,-0.56651 0.0103,-0.0468 0.0205,-0.0937 0.0308,-0.14049 1.4e-4,-0.0118 -0.002,-0.0238 4.2e-4,-0.0354 0.0239,-0.12853 0.0828,-0.25336 0.0685,-0.38788 0.003,-0.13958 0.0565,-0.27523 0.0902,-0.41006 0.12216,-0.44748 0.26063,-0.89323 0.3223,-1.35434 0.3955,-2.27328 -0.67614,-2.45972 -1.07164,-0.18644 z" /><path
         style="fill:#be0a0a;fill-opacity:1;stroke:none;stroke-width:2;stroke-linecap:square;stroke-linejoin:miter;stroke-dasharray:none;stroke-opacity:1"
         id="path14"
         d="m 159.95806,303.8666 c -0.0648,0.37058 -0.10601,0.7511 -0.0853,1.1279 0.0244,0.23002 0.0162,0.11566 0.0251,0.34308 -0.002,0.0821 0.021,0.16138 0.0277,0.24243 5.1e-4,0.006 -0.004,-0.022 -0.007,-0.017 -0.0104,0.0144 -0.0122,0.0334 -0.017,0.0504 -0.0226,0.0795 -0.0259,0.10685 -0.0423,0.19127 -0.0303,0.19627 -0.009,0.39524 0.002,0.59229 0.009,0.12857 0.004,0.25738 0.001,0.38603 -1e-5,0.1567 -0.004,0.31324 -0.006,0.46988 -0.006,0.0885 0.0124,0.17889 9.1e-4,0.26723 -4.3e-4,0.003 -0.008,-0.002 -0.01,5.1e-4 -0.007,0.013 -0.0102,0.0282 -0.0145,0.0426 -0.007,0.0244 -0.0137,0.0491 -0.0205,0.0737 -0.0702,0.27071 -0.0422,0.55217 -0.0383,0.82855 -0.0432,0.24764 -0.0719,0.49588 -0.0761,0.74718 0.0131,0.20836 0.0382,0.41481 -0.005,0.62087 -0.0574,0.27298 -0.0816,0.54824 -0.0597,0.82628 0.003,0.035 0.009,0.07 0.008,0.10516 -3e-4,0.008 -0.0107,0.0121 -0.0129,0.0197 -0.009,0.0305 -0.0144,0.062 -0.0204,0.0932 -0.009,0.0473 -0.0176,0.0948 -0.025,0.1424 -0.0374,0.24211 -0.0283,0.18912 -0.0445,0.43776 -0.003,0.33896 -0.043,0.6757 -0.0505,1.01448 4.5e-4,0.0464 0.004,0.0928 10e-4,0.13908 -0.006,0.10952 -0.0429,0.22679 -0.0564,0.33501 -0.0185,0.14828 -0.0211,0.24308 -0.0296,0.39412 -0.0446,0.35129 -0.076,0.70388 -0.0586,1.05803 -1.49234,2.35312 2.28933,2.38434 1.0643,-0.0143 v 0 c 0.0103,-0.33848 0.046,-0.67378 0.0795,-1.01083 8.3e-4,-0.2891 0.0401,-0.57318 0.0539,-0.86111 0.0234,-0.33694 0.11477,-0.66899 0.089,-1.00931 0.002,-0.11225 -10e-4,-0.22475 0.006,-0.33677 0.0126,-0.18713 0.0674,-0.37416 0.0361,-0.56291 -0.004,-0.22499 0.0523,-0.44277 0.0887,-0.66376 0.005,-0.0746 0.0137,-0.14909 0.0143,-0.22386 0.001,-0.16211 -0.0347,-0.32398 -0.0359,-0.48606 0.005,-0.27123 0.12855,-0.53357 0.10186,-0.80912 -0.0126,-0.16805 -0.0399,-0.33717 -0.031,-0.50572 0.0713,-0.21788 0.10216,-0.43726 0.089,-0.66645 -0.003,-0.14772 -0.0122,-0.29533 -0.009,-0.44319 0.004,-0.15489 0.016,-0.30972 0.009,-0.46471 -0.007,-0.11204 -0.0326,-0.22544 -0.021,-0.33683 0.0557,-0.23057 0.10933,-0.46164 0.088,-0.70125 -0.005,-0.1695 0.0215,-0.32911 0.0333,-0.49873 0.0195,-0.28034 0.041,-0.56131 0.0394,-0.84246 0.20101,-2.29601 -0.88135,-2.39077 -1.08235,-0.0947 z"
         sodipodi:nodetypes="cccsccccccsccccccccccccccsccsscccccccccccccccsccc" /><path
         style="fill:#be0a0a;fill-opacity:1;stroke:none;stroke-width:2;stroke-linecap:square;stroke-linejoin:miter;stroke-dasharray:none;stroke-opacity:1"
         id="path15"
         d="m 245.69872,290.09367 c -0.20128,0.43549 -0.36442,0.90233 -0.42955,1.38009 -0.006,0.0426 -0.0333,0.49963 -0.0365,0.55102 0.02,0.49495 -0.002,0.98857 -0.0617,1.48018 -0.0695,0.42996 -0.0607,0.86362 -0.0417,1.29672 0.002,0.062 0.005,0.12396 0.007,0.18597 0.006,0.23343 -0.004,0.17561 0.0298,0.4261 0.021,0.15374 0.0537,0.30553 0.0749,0.45927 0.012,0.2292 0.0491,0.457 0.0541,0.68678 -4.2e-4,0.30623 0.007,0.61929 0.0677,0.92084 0.0207,0.10376 0.0937,0.35439 0.12594,0.46784 0.0889,0.32013 0.0864,0.65838 0.098,0.98829 0.0344,0.35706 0.0524,0.71662 0.11847,1.06959 0.0436,0.2289 0.0186,0.46379 0.003,0.69439 -0.0247,0.39609 -0.0124,0.79271 -0.018,1.18914 0.003,0.25769 0.0181,0.51544 0.0363,0.77252 -0.005,0.14852 0.001,0.29712 -0.005,0.44556 -0.001,0.18611 2.3e-4,0.37208 -0.005,0.55817 -0.009,0.28016 -0.0164,0.56064 -0.006,0.84083 9.4e-4,0.1499 0.0142,0.29924 0.02,0.44895 0.002,0.13656 -0.009,0.27295 -0.0167,0.40921 -0.0126,0.28639 -0.0184,0.57348 0.003,0.85952 -2.06787,2.87314 2.58878,3.03219 1.0471,0 v 0 c 0.0217,-0.28604 0.0158,-0.57313 0.003,-0.85953 -0.008,-0.13622 -0.0183,-0.27259 -0.0167,-0.40912 0.006,-0.14977 0.019,-0.29917 0.0199,-0.44913 0.0105,-0.28002 0.003,-0.56033 -0.006,-0.84034 -0.005,-0.18676 -0.003,-0.37343 -0.005,-0.56022 -0.007,-0.14546 -0.001,-0.29107 -0.004,-0.43665 0.0218,-0.26181 0.0344,-0.52503 0.0331,-0.78769 -0.0114,-0.38207 -0.01,-0.76457 -0.006,-1.14675 10e-4,-0.29783 0.0173,-0.59773 -0.0385,-0.89232 -0.048,-0.32749 0.007,-0.66392 -0.0582,-0.99135 -0.0555,-0.38588 -0.0502,-0.77966 -0.13421,-1.1621 -0.0298,-0.12122 -0.065,-0.24124 -0.0898,-0.3636 -0.0562,-0.27736 -0.0731,-0.56228 -0.0978,-0.84352 -0.0189,-0.15834 -0.0186,-0.17605 -0.0438,-0.32029 -0.007,-0.0416 -0.0262,-0.0814 -0.0274,-0.12362 -0.003,-0.0879 0.0142,-0.17577 0.005,-0.26382 -0.0253,-0.34235 -0.0827,-0.6814 -0.0911,-1.02518 -0.006,-0.10083 -0.015,-0.20301 -0.0132,-0.30424 0.005,-0.27746 0.0712,-0.5505 0.0978,-0.82586 0.0524,-0.51021 0.0655,-1.02177 0.0458,-1.5341 0.004,-0.0661 0.002,-0.13269 0.0111,-0.19832 0.013,-0.0977 0.093,-0.38425 0.11207,-0.45048 0.0969,-0.33705 0.20951,-0.67015 0.27899,-1.01461 0.69609,-2.21043 -0.34592,-2.53857 -1.04201,-0.32814 z"
         sodipodi:nodetypes="ccccccccccccccccccccccsscccccccccccsccccccccccccc" /><path
         style="fill:#be0a0a;fill-opacity:1;stroke:none;stroke-width:2;stroke-linecap:square;stroke-linejoin:miter;stroke-dasharray:none;stroke-opacity:1"
         id="path16"
         d="m 223.59465,330.6387 c 0.009,0.0875 0.0175,0.17513 0.0284,0.26244 0.0365,0.29152 0.0348,0.23937 0.0791,0.51069 0.009,0.0555 0.0167,0.11121 0.0253,0.16677 0.014,0.0899 -0.007,0.10534 0.0226,0.0771 0.0941,-0.28045 5.7e-4,-0.0265 -0.004,0.1977 -0.005,0.24539 0.0371,0.0687 0.0471,0.18664 0.003,0.0331 -0.007,0.0661 -0.008,0.0993 0.006,0.28667 0.0678,0.56608 0.0594,0.85336 -0.006,0.25514 -0.006,0.51068 0.001,0.76579 0.005,0.1519 0.005,0.30406 0.007,0.45611 0.002,0.13223 8.4e-4,0.26447 -3e-5,0.3967 -0.0113,0.21773 -0.0101,0.43581 -0.0138,0.65377 -0.0129,0.27593 0.0435,0.54606 0.0871,0.81688 0.0113,0.12745 0.004,0.25409 0.0264,0.38086 0.0108,0.0598 0.0334,0.11695 0.045,0.17656 4.8e-4,0.20229 -0.002,0.40007 0.0278,0.60229 0.0362,0.18607 0.0441,0.37402 0.0405,0.56281 -0.0171,0.20592 -0.0204,0.41268 -0.0159,0.61917 0.002,0.14048 0.001,0.28102 0.005,0.42148 0.002,0.0895 0.0315,0.0859 -0.008,0.0858 -0.0528,0.1956 -0.10063,0.3942 -0.13379,0.59444 -0.0163,0.18428 -0.007,0.0462 -0.0103,0.22966 -2.1e-4,0.0136 0.003,-0.0278 -0.001,-0.0408 -0.002,-0.005 -0.006,0.009 -0.007,0.0144 -0.0329,0.10178 -0.003,0.0403 -0.0452,0.11606 -0.0599,0.17843 -0.11857,0.37086 -0.14401,0.54953 -7.2e-4,0.005 -0.001,0.01 -0.002,0.0147 -1.97336,1.87772 1.69292,2.9481 0.95663,0.34534 v 0 c 0.008,-0.018 0.0167,-0.0361 0.025,-0.0541 0.0633,-0.17217 0.10207,-0.35059 0.15045,-0.52728 0.0448,-0.15399 0.0916,-0.3066 0.10579,-0.46719 0.0451,-0.19574 0.0801,-0.39344 0.13197,-0.58742 0.0327,-0.23608 0.0378,-0.47201 0.0266,-0.71028 -0.002,-0.1783 -0.0136,-0.35683 0.002,-0.53485 0.0278,-0.25788 0.0235,-0.51737 -0.0229,-0.77323 -0.009,-0.0629 -0.026,-0.12485 -0.0308,-0.18825 -0.013,-0.17184 0.006,-0.34783 -0.0452,-0.51582 -0.009,-0.0311 -0.0167,-0.0627 -0.0279,-0.0932 -0.006,-0.0163 -0.005,0.0693 -0.003,0.0521 0.0144,-0.13305 0.0206,-0.26658 0.005,-0.40002 -0.0175,-0.15856 -0.0111,-0.13048 -0.0422,-0.28927 -0.0106,-0.0542 -0.0333,-0.10618 -0.0378,-0.16117 -0.002,-0.0235 0.002,-0.21642 0.002,-0.23936 -0.004,-0.21749 -0.003,-0.43511 -0.015,-0.65235 -5.6e-4,-0.13405 0.001,-0.26804 0.004,-0.40206 8.1e-4,-0.14586 -0.006,-0.29164 -0.006,-0.4372 0.02,-0.26799 0.0591,-0.5354 0.0455,-0.80494 -0.006,-0.0863 -0.017,-0.27876 -0.0264,-0.37202 -0.013,-0.12878 -0.0435,-0.25617 -0.0552,-0.38475 -0.005,-0.0526 -0.005,-0.10548 -0.008,-0.15822 -0.006,-0.0381 -0.0567,-0.37387 -0.0906,-0.38845 -0.0184,-0.008 0.008,0.0402 0.005,0.06 -0.0133,0.0878 -0.0713,0.17418 -0.0532,0.26118 0.0129,0.0621 0.0472,-0.11768 0.0708,-0.17651 0.0984,-0.45579 0.0183,-0.92498 -0.10992,-1.36776 -0.41756,-2.2589 -1.48242,-2.06206 -1.06486,0.19684 z"
         sodipodi:nodetypes="cccccsccccccccccccccccscccscsscccccccscsccsccccccscccsscccc" /><path
         style="fill:#be0a0a;fill-opacity:1;stroke:none;stroke-width:2;stroke-linecap:square;stroke-linejoin:miter;stroke-dasharray:none;stroke-opacity:1"
         id="path17"
         d="m 296.94268,274.00284 c -0.27046,0.6586 -0.50464,1.33163 -0.69629,2.01733 -0.0607,0.21888 -0.18228,0.41062 -0.26032,0.62238 -0.0192,0.0521 -0.0834,0.25356 -0.0995,0.30377 -0.0844,0.2005 -0.0301,0.41768 -0.0647,0.62344 -0.0312,0.15067 -0.0206,0.30482 -0.0171,0.4574 -0.005,-0.002 -0.0128,-0.0106 -0.0155,-0.006 -0.0604,0.10815 -0.0726,0.38637 -0.0735,0.51012 0.0675,-0.0385 -0.0417,0.19887 0.017,0.18215 -0.002,-0.0266 -0.005,-0.0533 -0.007,-0.0799 -0.002,5.6e-4 -0.006,-5.5e-4 -0.007,0.002 -0.019,0.044 -0.036,0.12398 -0.0462,0.16504 -0.0315,0.11223 -0.0155,0.22735 -0.019,0.34116 -3.1e-4,0.0103 0.003,-0.026 -0.006,-0.0303 -0.004,-0.002 -0.01,0.0241 -0.0269,0.0905 -0.006,0.0325 -0.0103,0.0657 -0.0192,0.0976 -7e-4,0.003 -0.006,-0.005 -0.007,-0.003 -0.0102,0.0196 -0.0168,0.0409 -0.0237,0.062 -0.0389,0.11999 -0.0528,0.2345 -0.0598,0.35989 1.4e-4,0.26 0.0178,-0.0235 -0.0237,0.1543 -0.0218,0.0935 -0.003,0.1196 -0.0254,0.0827 -0.0454,0.095 -0.0637,0.19743 -0.0814,0.30016 -0.004,0.023 -0.0171,0.0918 -0.0111,0.0692 0.006,-0.0232 0.01,-0.047 0.0144,-0.0705 -0.0939,0.15687 -0.1518,0.32577 -0.17968,0.50673 -0.0156,0.11543 0.007,0.23098 0.008,0.346 1e-4,0.0107 -0.0119,0.0183 -0.0143,0.0287 -0.004,0.0181 -0.008,0.0363 -0.0118,0.0544 -0.0457,0.20174 -0.04,0.40807 -0.0253,0.61278 0.11867,2.20097 1.15622,2.14502 1.03755,-0.0559 v 0 c -0.005,-0.11374 -0.028,-0.23101 -2.8e-4,-0.34224 0.0386,-0.16145 0.0798,-0.35987 0.0287,-0.50936 0.005,-0.083 0.0567,-0.14592 0.0842,-0.20935 0.0485,-0.12971 0.0835,-0.25856 0.12484,-0.38918 0.0549,-0.17486 0.12133,-0.36304 0.10721,-0.54824 -0.0227,-0.0884 0.0961,-0.21048 0.0819,-0.30542 0.0364,-0.13764 0.0708,-0.27776 0.056,-0.4211 0.0346,-0.15873 0.10433,-0.31403 0.0674,-0.4814 0.005,-0.18812 0.11822,-0.36651 0.0903,-0.55967 -0.004,-0.0598 -0.0197,-0.15227 -0.0155,-0.19199 0.0523,-0.18614 0.0652,-0.37613 0.0921,-0.56677 0.0219,-0.0865 0.0239,-0.11235 0.0583,-0.18891 0.10509,-0.23398 0.28873,-0.42999 0.36101,-0.6811 0.26508,-0.67663 0.51953,-1.36336 0.66541,-2.07688 0.57889,-2.2399 -0.47701,-2.51279 -1.0559,-0.27289 z" /><path
         style="fill:#be0a0a;fill-opacity:1;stroke:none;stroke-width:2;stroke-linecap:square;stroke-linejoin:miter;stroke-dasharray:none;stroke-opacity:1"
         id="path18"
         d="m 354.64745,288.18515 c -0.11796,0.64556 -0.13518,1.30452 -0.0533,1.95474 0.0561,0.18619 0.0324,0.36964 0.0281,0.56023 -0.0488,0.34196 -0.001,0.68836 -0.0238,1.03085 -0.0478,0.19664 -0.0658,0.39445 -0.0597,0.59675 0.0207,0.16353 0.025,0.32627 0.0237,0.49073 6.5e-4,0.16172 -0.008,0.32307 -0.007,0.48477 0.004,0.13681 0.008,0.2735 0.008,0.41037 -0.002,0.1335 -10e-4,0.26702 -0.002,0.40053 -3.4e-4,0.13375 7.7e-4,0.2675 5.2e-4,0.40125 -7.7e-4,0.13786 -10e-4,0.27571 -5.5e-4,0.41357 -0.003,0.14995 0.0386,0.30998 0.12629,0.43382 0.0136,0.0192 -0.0174,-0.0439 -0.0246,-0.0663 -0.002,-0.014 -0.004,-0.0279 -0.006,-0.0419 -1.48684,2.40531 2.27717,2.58178 1.0193,0.008 v 0 l -0.006,-0.12571 c -0.0103,-0.0461 -0.0495,-0.25286 -0.098,-0.28479 -0.0106,-0.007 0.008,0.0243 0.01,0.0369 0.005,0.0358 0.001,0.0731 0.0107,0.10805 0.006,0.0218 9e-5,-0.0452 1.4e-4,-0.0677 5.8e-4,-0.13777 2e-4,-0.27554 -4.8e-4,-0.41331 -1.9e-4,-0.13403 8.9e-4,-0.26805 2.6e-4,-0.40208 -5.6e-4,-0.13255 1.7e-4,-0.2651 -7.6e-4,-0.39765 -1.6e-4,-0.13933 0.003,-0.27858 0.004,-0.41789 -6.8e-4,-0.15372 -0.009,-0.30722 0.004,-0.46074 0.005,-0.186 -0.002,-0.37201 -0.0137,-0.55766 -0.002,-0.0276 -0.004,-0.0553 -0.007,-0.0828 -0.002,-0.0184 -0.0167,-0.0357 -0.0133,-0.0538 0.0182,-0.0988 0.0836,-0.18936 0.0898,-0.29127 0.0553,-0.3759 0.0388,-0.75858 0.0239,-1.13743 10e-4,-0.20479 -0.0269,-0.40763 -0.0139,-0.61165 0.0445,-0.61114 0.11792,-1.22244 0.0922,-1.83655 0.17149,-2.35616 -0.93921,-2.43701 -1.11071,-0.0808 z"
         sodipodi:nodetypes="cccccccccccsccsccscsccsccccsccccccc" /><path
         style="fill:#be0a0a;fill-opacity:1;stroke:none;stroke-width:2;stroke-linecap:square;stroke-linejoin:miter;stroke-dasharray:none;stroke-opacity:1"
         id="path19"
         d="m 405.91674,266.42124 c 0.01,0.3605 0.12541,0.70967 0.14622,1.06785 -0.0443,0.23355 -0.10458,0.46018 -0.12411,0.69804 -0.009,0.23095 0.0198,0.46055 0.0242,0.69111 -0.0891,0.1949 -0.0965,0.4361 -0.0962,0.64714 0.0189,0.15611 0.0349,0.30857 0.0339,0.46567 -0.002,-0.0111 4.6e-4,-0.0419 -0.007,-0.0334 -0.0164,0.0189 -0.018,0.0468 -0.0254,0.0707 -0.0485,0.15869 -0.0641,0.31454 -0.0636,0.4797 0.0132,0.13438 0.036,0.26502 0.0257,0.40001 -0.018,0.22505 -0.007,0.44555 0.0494,0.6646 0.038,0.086 0.0408,0.15421 0.0296,0.24208 -0.0505,0.22895 0.0164,0.44815 0.0773,0.6666 -0.008,0.1414 -0.0246,0.28721 -0.0339,0.43026 -0.0102,0.16619 0.011,0.33151 0.0187,0.49717 6.4e-4,0.0136 0.001,0.0272 0.002,0.0408 -0.96306,2.06078 1.88289,1.95603 1.02162,-0.015 v 0 l 4.2e-4,-0.0534 c -0.002,-0.14166 0.004,-0.2831 0.01,-0.42463 0.006,-0.23189 0.0365,-0.46531 -0.005,-0.69578 -0.008,-0.0395 -0.0305,-0.19297 -0.0595,-0.22683 -0.004,-0.005 -0.011,0.0188 -0.0127,0.013 -0.008,-0.0258 0.002,-0.0957 0.005,-0.12124 0.0233,-0.20668 0.0234,-0.41361 -0.0434,-0.61346 -0.006,-0.017 -0.007,-0.0367 -0.0175,-0.0509 -0.004,-0.005 -0.0108,0.0189 -0.0116,0.0131 -0.0152,-0.11858 0.0293,-0.24479 0.01,-0.36406 -0.006,-0.13601 -0.0119,-0.27195 -0.0318,-0.40684 -0.002,-0.1748 0.10807,-0.33692 0.10036,-0.51366 -9.9e-4,-0.15343 -0.0199,-0.30486 -0.0238,-0.45804 0.006,-0.233 0.0825,-0.45276 0.10026,-0.68495 -0.002,-0.051 -0.008,-0.19062 -0.0118,-0.24439 -0.006,-0.0841 -0.0256,-0.17255 -0.0268,-0.25692 -2.1e-4,-0.0145 0.004,-0.0287 0.006,-0.043 0.0312,-0.1696 0.0741,-0.33968 0.0939,-0.511 0.003,-0.0264 -0.004,-0.0534 -5.1e-4,-0.0797 0.005,-0.0379 0.0161,-0.0747 0.0242,-0.11202 0.0758,-0.46134 0.016,-0.93026 -0.11916,-1.37595 -0.41859,-2.25824 -1.48313,-2.06092 -1.06454,0.19732 z"
         sodipodi:nodetypes="ccccccccccccccscscccccccccccccccsscsscccc" /><path
         style="fill:#be0a0a;fill-opacity:1;stroke:none;stroke-width:2;stroke-linecap:square;stroke-linejoin:miter;stroke-dasharray:none;stroke-opacity:1"
         id="path20"
         d="m 409.63254,317.02409 c -0.0761,0.27122 -0.16016,0.54144 -0.20916,0.81944 -0.0402,0.22777 -0.0564,0.4626 -0.0787,0.6927 -10e-6,0.0602 -0.003,0.12051 -3e-5,0.18068 0.002,0.0482 0.0105,0.096 0.0145,0.14415 0.005,0.0584 -0.0235,0.1149 -0.0326,0.1728 -0.008,0.0488 -0.0112,0.0982 -0.0168,0.14733 -0.0208,0.24795 -0.0122,0.49514 0.0198,0.74145 -0.0182,0.11107 0.009,0.22739 -0.006,0.3381 -7.2e-4,0.006 -0.0113,0.005 -0.013,0.0105 -0.0141,0.0419 -0.0224,0.0855 -0.0336,0.12831 -0.0653,0.28733 -0.0719,0.58011 -0.0262,0.8702 0.0286,0.12238 0.009,0.24921 9.2e-4,0.37361 -0.009,0.16741 0.002,0.33477 0.007,0.50206 0.002,0.12894 -0.002,0.25788 -0.002,0.38683 -3e-5,0.1386 6e-4,0.2772 8.1e-4,0.4158 -9.7e-4,0.13221 0.001,0.2644 0.001,0.3966 -3e-4,0.0863 -1.2e-4,0.0429 -5.4e-4,0.13004 -2.7e-4,2.18555 1.03,2.18568 1.03028,1.3e-4 v 0 c -3.9e-4,-0.087 -2.3e-4,-0.0437 -4.9e-4,-0.12991 4e-5,-0.13256 0.002,-0.26512 9e-4,-0.39768 -3e-5,-0.13745 3.4e-4,-0.2749 10e-4,-0.41235 4e-5,-0.13348 -0.002,-0.26691 -0.004,-0.40038 10e-4,-0.15665 0.0132,-0.313 0.0127,-0.46971 -0.003,-0.16437 -0.004,-0.32841 -0.0178,-0.49232 -10e-4,-0.19488 0.003,-0.39112 0.0405,-0.58293 0.0323,-0.2362 0.0664,-0.47164 0.0375,-0.71051 0.008,-0.20596 0.001,-0.41167 0.006,-0.61744 0.002,-0.059 -0.005,-0.11857 0.002,-0.17724 0.005,-0.0393 0.0185,-0.0771 0.0243,-0.11626 0.0157,-0.10672 0.016,-0.21578 0.0343,-0.32227 0.0607,-0.4737 0.21552,-0.93111 0.26708,-1.40594 0.45768,-2.25008 -0.60302,-2.46584 -1.0607,-0.21575 z" /><path
         style="fill:#be0a0a;fill-opacity:1;stroke:none;stroke-width:2;stroke-linecap:square;stroke-linejoin:miter;stroke-dasharray:none;stroke-opacity:1"
         id="path21"
         d="m 424.974,265.00768 c 0.0553,0.47538 0.15473,0.94367 0.27824,1.40573 0.10933,0.40902 0.0545,0.10998 0.10803,0.4618 0.0339,0.27532 -0.0197,0.55083 -0.0451,0.82479 -0.0168,0.35554 6.2e-4,0.70961 0.0611,1.06012 0.0353,0.21384 0.10716,0.42535 0.11861,0.6425 -0.0159,0.22548 -0.0223,0.44628 6.8e-4,0.67125 0.0245,0.18456 0.0828,0.36333 0.11169,0.54684 0.004,0.0239 0.0216,0.22902 0.0239,0.2556 0.0144,0.22663 -0.0372,0.45101 -0.0344,0.67744 9.9e-4,0.078 0.008,0.15572 0.0125,0.23358 0.0458,0.30745 0.0877,0.61538 0.0842,0.92665 -0.0199,0.23253 -0.0163,0.46466 -0.0117,0.6975 0.007,0.13977 0.0173,0.27906 0.009,0.41887 -0.005,0.088 -0.004,0.17601 -0.003,0.26403 -0.83175,2.22412 1.85952,2.24476 1.03906,0.005 v 0 c 0.002,-0.088 0.004,-0.17606 5.8e-4,-0.26409 -0.007,-0.14643 -0.001,-0.29305 -0.005,-0.4396 -0.003,-0.21661 0.0235,-0.43323 0.034,-0.64943 0.0174,-0.35146 -2.7e-4,-0.70097 -0.0733,-1.04632 -0.0495,-0.295 0.0395,-0.59789 0.0193,-0.89551 -0.0189,-0.30499 -0.0871,-0.59791 -0.17629,-0.88946 -0.0289,0.0349 -0.0105,0.0176 -0.003,-0.0717 0.0152,-0.17081 0.0268,-0.34287 0.0179,-0.51433 -0.0215,-0.24741 -0.0793,-0.48721 -0.10171,-0.73453 -0.0452,-0.27414 -0.0703,-0.54885 -0.0651,-0.82733 0.0106,-0.34357 0.14219,-0.67996 0.0899,-1.02884 -0.0836,-0.68536 -0.19577,-1.36982 -0.44368,-2.0182 -0.60931,-2.22107 -1.65633,-1.93384 -1.04702,0.28723 z"
         sodipodi:nodetypes="cscccccccscccccsscccccccccccccc" /><path
         style="fill:#be0a0a;fill-opacity:1;stroke:none;stroke-width:2;stroke-linecap:square;stroke-linejoin:miter;stroke-dasharray:none;stroke-opacity:1"
         id="path22"
         d="m 448.87589,284.66244 c 0.0748,0.37075 0.14148,0.74694 0.25473,1.10858 -0.0125,0.21217 0.0221,0.42773 0.0361,0.64034 0.014,0.28115 0.004,0.56288 -0.01,0.84385 -0.004,0.23042 -0.0161,0.46186 0.0229,0.69026 0.005,0.0278 0.0543,0.22551 0.0659,0.27215 0.0323,0.12667 0.0127,0.2496 5.9e-4,0.37681 -0.0146,0.16057 -0.003,0.32152 0.002,0.48216 0.006,0.17063 -0.009,0.34086 -0.0166,0.51119 -0.002,0.16048 -0.002,0.32079 0.009,0.48096 0.002,0.0233 -0.003,0.0917 0.006,0.0699 0.0196,-0.0506 0.0195,-0.10679 0.0293,-0.16018 0.0241,-0.0416 0.0531,-0.0808 0.0723,-0.12489 0.007,-0.0152 -0.0248,0.0227 -0.0338,0.0366 -0.13491,0.20965 -0.1562,0.33171 -0.14342,0.57179 0.007,0.0672 0.0116,0.13443 0.0152,0.20183 0.12224,2.18857 1.15394,2.13094 1.0317,-0.0576 v 0 c -0.005,-0.0729 -0.01,-0.14584 -0.02,-0.21824 -0.002,-0.01 0,-0.0203 -0.005,-0.0288 -0.002,-0.003 -0.005,0.005 -0.007,0.008 -0.0106,0.0251 -0.0161,0.0526 -0.0293,0.0765 -0.0198,0.036 -0.0469,0.0674 -0.0689,0.10209 -0.002,0.004 0.006,-0.006 0.01,-0.009 0.0396,-0.0565 0.0791,-0.11301 0.11865,-0.16951 0.0206,-0.0774 0.0445,-0.15396 0.0619,-0.23211 0.0392,-0.17571 -0.003,-0.36633 0.0152,-0.54359 -0.007,-0.18226 -0.0159,-0.36433 -0.0166,-0.54675 -0.004,-0.12261 -0.008,-0.24546 0.003,-0.36788 0.0175,-0.22404 0.0475,-0.44913 -0.005,-0.67156 -0.0174,-0.088 -0.0452,-0.18468 -0.0507,-0.27465 -0.009,-0.14945 0.007,-0.30046 4.9e-4,-0.45003 9.6e-4,-0.31835 0.0388,-0.63656 0.0114,-0.9549 -0.0165,-0.16157 -0.0154,-0.18234 -0.0432,-0.33691 -0.007,-0.0371 -0.0124,-0.0747 -0.0234,-0.11079 -0.002,-0.007 -0.0145,-0.009 -0.0154,-0.0169 -0.008,-0.0718 0.0114,-0.14509 -0.002,-0.2169 -3.2e-4,-0.13242 0.007,-0.26178 -0.008,-0.39463 -0.0326,-0.29535 -0.10914,-0.58467 -0.21596,-0.86144 -0.58023,-2.23597 -1.63428,-1.96244 -1.05405,0.27353 z" /><path
         style="fill:#be0a0a;fill-opacity:1;stroke:none;stroke-width:2;stroke-linecap:square;stroke-linejoin:miter;stroke-dasharray:none;stroke-opacity:1"
         id="path23"
         d="m 451.53959,287.67907 c -0.0325,0.29175 -0.0342,0.58627 -0.0109,0.87875 0.006,0.0787 0.0112,0.20202 0.053,0.27822 -10e-4,0.0895 -0.0102,0.18089 -0.0122,0.27123 -10e-4,0.14346 0.002,0.28691 0.003,0.43037 0.004,0.086 0.009,0.17093 0.004,0.25687 -0.004,0.0827 -0.002,0.04 -0.005,0.12836 0,2.18823 1.03154,2.18823 1.03154,0 v 0 c -0.003,-0.0884 -8.7e-4,-0.0456 -0.005,-0.12836 -0.005,-0.0859 -2.7e-4,-0.17092 0.004,-0.25687 8.6e-4,-0.14346 0.004,-0.28691 0.003,-0.43037 -0.002,-0.0903 -0.011,-0.18176 -0.0122,-0.27123 0.0418,-0.0762 0.0467,-0.19957 0.053,-0.27822 0.0233,-0.29248 0.0215,-0.587 -0.0109,-0.87875 0,-2.32448 -1.09578,-2.32448 -1.09578,0 z" /></g></g></svg>
